<?xml version="1.0" encoding="utf-8"?>
<!-- Generator: Adobe Illustrator 24.2.1, SVG Export Plug-In . SVG Version: 6.00 Build 0)  -->
<svg version="1.1" id="Capa_1" xmlns="http://www.w3.org/2000/svg" xmlns:xlink="http://www.w3.org/1999/xlink" x="0px" y="0px" height="25" width="25"
	 viewBox="0 0 332 332" style="enable-background:new 0 0 332 332;" xml:space="preserve">
<style type="text/css">
	.st0{fill:#FF2E2E;stroke:#000000;stroke-width:5.8865;stroke-miterlimit:10;}
</style>
<g>
	<g>
		<path d="M166,0C74.4,0,0,74.4,0,166s74.4,166,166,166s166-74.4,166-166S257.6,0,166,0z M166,317.6c-83.6,0-151.6-68-151.6-151.6
			S82.4,14.4,166,14.4s151.6,68,151.6,151.6S249.6,317.6,166,317.6z"/>
	</g>
</g>
<g>
	<g>
		<path class="st0" d="M276.2,132.1v67.8c0,4.7-3.8,8.5-8.5,8.5h-59.3v59.3c0,4.7-3.8,8.5-8.5,8.5h-67.8c-4.7,0-8.5-3.8-8.5-8.5
			v-59.3H64.3c-4.7,0-8.5-3.8-8.5-8.5v-67.8c0-4.7,3.8-8.5,8.5-8.5h59.3V64.3c0-4.7,3.8-8.5,8.5-8.5h67.8c4.7,0,8.5,3.8,8.5,8.5
			v59.3h59.3C272,123.6,275.7,127.4,276.2,132.1z"/>
	</g>
</g>
</svg>
